<svg width="124" height="40" viewBox="0 0 124 40" fill="none" xmlns="http://www.w3.org/2000/svg">
<path d="M0 10C0 4.47715 4.47715 0 10 0H114C119.523 0 124 4.47715 124 10V30C124 35.5228 119.523 40 114 40H10C4.47715 40 0 35.5228 0 30V10Z" fill="#4C7E0C"/>
<path d="M17.8168 10.6C16.4768 11.16 15.4368 12 14.6968 13.12C13.9768 14.24 13.6168 15.59 13.6168 17.17C13.6168 17.91 13.6868 18.43 13.8268 18.73C13.9668 19.01 14.0368 19.17 14.0368 19.21C12.9568 19.21 12.1468 18.99 11.6068 18.55C11.0868 18.09 10.8268 17.34 10.8268 16.3C10.8268 15.02 11.3468 13.78 12.3868 12.58C13.4468 11.36 14.7968 10.38 16.4368 9.64C18.0768 8.88 19.7168 8.5 21.3568 8.5C21.6368 8.5 22.0368 8.52 22.5568 8.56L20.6368 17.5H25.0468L26.9668 8.56H31.2868L26.5168 31H22.1968L24.5968 19.72H20.1868L17.7868 31H13.4668L17.8168 10.6Z" fill="#F9F9F9"/>
<path d="M34.798 31.12C33.318 31.12 32.148 30.74 31.288 29.98C30.428 29.22 29.998 28.02 29.998 26.38C29.998 25.02 30.278 23.51 30.838 21.85C31.398 20.19 32.298 18.76 33.538 17.56C34.778 16.34 36.338 15.73 38.218 15.73C40.778 15.73 42.058 17.33 42.058 20.53V20.56C42.118 20.58 42.228 20.59 42.388 20.59C43.048 20.59 43.808 20.42 44.668 20.08C45.528 19.72 46.308 19.29 47.008 18.79L47.278 19.6C46.698 20.22 45.938 20.75 44.998 21.19C44.078 21.61 43.068 21.91 41.968 22.09C41.808 23.91 41.398 25.5 40.738 26.86C40.078 28.22 39.228 29.27 38.188 30.01C37.148 30.75 36.018 31.12 34.798 31.12ZM35.998 28.42C36.478 28.42 36.958 28.15 37.438 27.61C37.918 27.05 38.338 26.3 38.698 25.36C39.058 24.4 39.318 23.34 39.478 22.18C38.938 22.06 38.668 21.64 38.668 20.92C38.668 20.1 38.978 19.56 39.598 19.3C39.558 18.64 39.458 18.19 39.298 17.95C39.138 17.69 38.858 17.56 38.458 17.56C37.798 17.56 37.158 18.04 36.538 19C35.918 19.96 35.418 21.11 35.038 22.45C34.658 23.79 34.468 24.97 34.468 25.99C34.468 26.95 34.578 27.6 34.798 27.94C35.018 28.26 35.418 28.42 35.998 28.42Z" fill="#F9F9F9"/>
<path d="M46.5715 31.18C45.6115 31.18 44.8315 30.88 44.2315 30.28C43.6515 29.68 43.3615 28.78 43.3615 27.58C43.3615 27.08 43.4415 26.43 43.6015 25.63L46.8115 10.6L51.2515 10L47.8015 26.2C47.7215 26.5 47.6815 26.82 47.6815 27.16C47.6815 27.56 47.7715 27.85 47.9515 28.03C48.1515 28.19 48.4715 28.27 48.9115 28.27C49.4915 28.27 50.0315 28.03 50.5315 27.55C51.0315 27.05 51.3915 26.41 51.6115 25.63H52.8715C52.1315 27.79 51.1815 29.26 50.0215 30.04C48.8615 30.8 47.7115 31.18 46.5715 31.18Z" fill="#F9F9F9"/>
<path d="M56.6096 14.38C55.9496 14.38 55.3896 14.15 54.9296 13.69C54.4696 13.23 54.2396 12.67 54.2396 12.01C54.2396 11.35 54.4696 10.79 54.9296 10.33C55.3896 9.85 55.9496 9.61 56.6096 9.61C57.2696 9.61 57.8296 9.85 58.2896 10.33C58.7696 10.79 59.0096 11.35 59.0096 12.01C59.0096 12.67 58.7696 13.23 58.2896 13.69C57.8296 14.15 57.2696 14.38 56.6096 14.38ZM54.5696 31.18C53.6096 31.18 52.8296 30.88 52.2296 30.28C51.6496 29.68 51.3596 28.78 51.3596 27.58C51.3596 27.08 51.4396 26.43 51.5996 25.63L53.6396 16H57.9596L55.7996 26.2C55.7196 26.5 55.6796 26.82 55.6796 27.16C55.6796 27.56 55.7696 27.85 55.9496 28.03C56.1496 28.19 56.4696 28.27 56.9096 28.27C57.4896 28.27 58.0296 28.03 58.5296 27.55C59.0296 27.05 59.3896 26.41 59.6096 25.63H60.8696C60.1296 27.79 59.1796 29.26 58.0196 30.04C56.8596 30.8 55.7096 31.18 54.5696 31.18Z" fill="#F9F9F9"/>
<path d="M63.1976 31.18C62.0576 31.18 61.1076 30.79 60.3476 30.01C59.5876 29.23 59.2076 28.01 59.2076 26.35C59.2076 24.87 59.4976 23.32 60.0776 21.7C60.6776 20.06 61.5576 18.68 62.7176 17.56C63.8976 16.42 65.2976 15.85 66.9176 15.85C67.7376 15.85 68.3476 15.99 68.7476 16.27C69.1476 16.55 69.3476 16.92 69.3476 17.38V17.5L70.8176 10.6L75.2576 10L71.8076 26.2C71.7276 26.5 71.6876 26.82 71.6876 27.16C71.6876 27.56 71.7776 27.85 71.9576 28.03C72.1576 28.19 72.4776 28.27 72.9176 28.27C73.4776 28.27 73.9576 28.03 74.3576 27.55C74.7776 27.07 75.1076 26.43 75.3476 25.63H76.6076C75.3876 29.21 73.3776 31 70.5776 31C69.7576 31 69.0876 30.78 68.5676 30.34C68.0676 29.9 67.7576 29.26 67.6376 28.42C67.1176 29.22 66.4876 29.88 65.7476 30.4C65.0276 30.92 64.1776 31.18 63.1976 31.18ZM65.1476 28.27C65.6276 28.27 66.1076 28.05 66.5876 27.61C67.0876 27.17 67.4276 26.56 67.6076 25.78V25.63L69.0776 18.76C68.8976 18.06 68.4876 17.71 67.8476 17.71C67.0476 17.71 66.3276 18.18 65.6876 19.12C65.0476 20.04 64.5476 21.16 64.1876 22.48C63.8276 23.78 63.6476 24.93 63.6476 25.93C63.6476 26.93 63.7876 27.57 64.0676 27.85C64.3676 28.13 64.7276 28.27 65.1476 28.27Z" fill="#F9F9F9"/>
<path d="M78.9594 31.18C77.8194 31.18 76.8694 30.79 76.1094 30.01C75.3494 29.23 74.9694 28.01 74.9694 26.35C74.9694 24.87 75.2594 23.32 75.8394 21.7C76.4394 20.06 77.3194 18.68 78.4794 17.56C79.6594 16.42 81.0594 15.85 82.6794 15.85C83.4994 15.85 84.1094 15.99 84.5094 16.27C84.9094 16.55 85.1094 16.92 85.1094 17.38V17.59L85.4394 16H89.7594L87.5994 26.2C87.5194 26.5 87.4794 26.82 87.4794 27.16C87.4794 27.56 87.5694 27.85 87.7494 28.03C87.9494 28.19 88.2694 28.27 88.7094 28.27C88.9894 28.27 89.2094 28.23 89.3694 28.15C88.9294 29.27 88.5094 30.06 88.1094 30.52C87.7094 30.96 87.1294 31.18 86.3694 31.18C85.5494 31.18 84.8794 30.94 84.3594 30.46C83.8594 29.96 83.5494 29.27 83.4294 28.39C82.2094 30.25 80.7194 31.18 78.9594 31.18ZM97.3494 17.62H95.6694C95.1094 17.62 94.6894 17.65 94.4094 17.71C94.1494 17.77 94.0194 17.9 94.0194 18.1C94.0194 18.14 94.0694 18.19 94.1694 18.25C94.2894 18.29 94.3494 18.46 94.3494 18.76C94.3494 19.28 94.1894 19.68 93.8694 19.96C93.5494 20.22 93.1694 20.35 92.7294 20.35C92.3494 20.35 92.0194 20.24 91.7394 20.02C91.4794 19.78 91.3494 19.45 91.3494 19.03C91.3494 18.61 91.4894 18.16 91.7694 17.68C92.0694 17.2 92.4794 16.8 92.9994 16.48C93.5394 16.16 94.1494 16 94.8294 16H102.539L95.1894 28.69C95.3094 28.69 95.5294 28.71 95.8494 28.75C96.5294 28.83 97.0694 28.87 97.4694 28.87C98.3294 28.87 98.7994 28.67 98.8794 28.27C98.6994 28.25 98.5594 28.19 98.4594 28.09C98.3594 27.97 98.3094 27.82 98.3094 27.64C98.3094 27.32 98.4594 27.03 98.7594 26.77C99.0594 26.49 99.4694 26.35 99.9894 26.35C100.429 26.35 100.759 26.48 100.979 26.74C101.199 27 101.309 27.35 101.309 27.79C101.309 28.27 101.159 28.76 100.859 29.26C100.559 29.76 100.129 30.18 99.5694 30.52C99.0094 30.84 98.3694 31 97.6494 31H89.6994L97.3494 17.62ZM80.9094 28.27C81.4094 28.27 81.8994 28.04 82.3794 27.58C82.8794 27.1 83.2194 26.45 83.3994 25.63L84.8394 18.85C84.8394 18.59 84.7394 18.34 84.5394 18.1C84.3394 17.84 84.0294 17.71 83.6094 17.71C82.8094 17.71 82.0894 18.18 81.4494 19.12C80.8094 20.04 80.3094 21.16 79.9494 22.48C79.5894 23.78 79.4094 24.93 79.4094 25.93C79.4094 26.93 79.5494 27.57 79.8294 27.85C80.1294 28.13 80.4894 28.27 80.9094 28.27Z" fill="#F9F9F9"/>
<path d="M106.777 31.18C105.317 31.18 104.177 30.8 103.357 30.04C102.537 29.26 102.127 28.05 102.127 26.41C102.127 25.03 102.397 23.51 102.937 21.85C103.477 20.19 104.357 18.76 105.577 17.56C106.797 16.34 108.347 15.73 110.227 15.73C112.427 15.73 113.527 16.69 113.527 18.61C113.527 19.73 113.207 20.76 112.567 21.7C111.927 22.64 111.077 23.4 110.017 23.98C108.957 24.54 107.827 24.86 106.627 24.94C106.587 25.38 106.567 25.68 106.567 25.84C106.567 27.5 107.187 28.33 108.427 28.33C108.987 28.33 109.587 28.18 110.227 27.88C110.867 27.58 111.447 27.2 111.967 26.74C111.427 29.7 109.697 31.18 106.777 31.18ZM106.837 23.5C107.597 23.48 108.307 23.23 108.967 22.75C109.647 22.27 110.187 21.66 110.587 20.92C111.007 20.16 111.217 19.37 111.217 18.55C111.217 17.73 110.967 17.32 110.467 17.32C109.767 17.32 109.067 17.96 108.367 19.24C107.687 20.5 107.177 21.92 106.837 23.5Z" fill="#F9F9F9"/>
</svg>
