<svg width="576" height="400" viewBox="0 0 576 400" fill="none" xmlns="http://www.w3.org/2000/svg">
<path d="M0 0H576V400H0V0Z" fill="#D9D9D9"/>
<path d="M273.64 158.031C273.64 160.99 272.464 163.828 270.372 165.92C268.28 168.012 265.442 169.188 262.484 169.188C259.525 169.188 256.687 168.012 254.595 165.92C252.503 163.828 251.327 160.99 251.327 158.031C251.327 155.072 252.503 152.235 254.595 150.143C256.687 148.05 259.525 146.875 262.484 146.875C265.442 146.875 268.28 148.05 270.372 150.143C272.464 152.235 273.64 155.072 273.64 158.031Z" fill="black"/>
<path d="M240.156 132C237.197 132 234.36 133.175 232.268 135.268C230.175 137.36 229 140.197 229 143.156V210.094C229 213.053 230.175 215.89 232.268 217.982C234.36 220.075 237.197 221.25 240.156 221.25H336.844C339.803 221.25 342.64 220.075 344.732 217.982C346.825 215.89 348 213.053 348 210.094V143.156C348 140.197 346.825 137.36 344.732 135.268C342.64 133.175 339.803 132 336.844 132H240.156ZM336.844 139.438C337.83 139.438 338.776 139.829 339.473 140.527C340.171 141.224 340.562 142.17 340.562 143.156V187.781L312.486 173.3C311.788 172.951 310.999 172.83 310.229 172.954C309.458 173.078 308.747 173.441 308.194 173.992L280.601 201.585L260.818 188.406C260.103 187.93 259.247 187.717 258.393 187.801C257.539 187.885 256.74 188.261 256.132 188.867L236.452 206.375V210.391C236.443 210.292 236.439 210.193 236.438 210.094V143.156C236.438 142.17 236.829 141.224 237.527 140.527C238.224 139.829 239.17 139.438 240.156 139.438H336.844Z" fill="black"/>
<path d="M243.696 262.224C243.286 261.533 242.81 260.758 242.268 259.9C241.746 259.041 241.176 258.154 240.56 257.24C239.944 256.306 239.3 255.364 238.628 254.412C237.975 253.46 237.322 252.545 236.668 251.668C236.015 250.772 235.38 249.932 234.764 249.148C234.148 248.364 233.579 247.673 233.056 247.076V262.224H230.396V242.82H232.552C233.43 243.753 234.363 244.845 235.352 246.096C236.36 247.328 237.35 248.606 238.32 249.932C239.31 251.238 240.234 252.526 241.092 253.796C241.97 255.065 242.707 256.194 243.304 257.184V242.82H245.964V262.224H243.696Z" fill="black"/>
<path d="M263.451 254.944C263.451 256.101 263.283 257.146 262.947 258.08C262.611 259.013 262.135 259.816 261.519 260.488C260.922 261.16 260.203 261.682 259.363 262.056C258.523 262.41 257.609 262.588 256.619 262.588C255.63 262.588 254.715 262.41 253.875 262.056C253.035 261.682 252.307 261.16 251.691 260.488C251.094 259.816 250.627 259.013 250.291 258.08C249.955 257.146 249.787 256.101 249.787 254.944C249.787 253.805 249.955 252.769 250.291 251.836C250.627 250.884 251.094 250.072 251.691 249.4C252.307 248.728 253.035 248.214 253.875 247.86C254.715 247.486 255.63 247.3 256.619 247.3C257.609 247.3 258.523 247.486 259.363 247.86C260.203 248.214 260.922 248.728 261.519 249.4C262.135 250.072 262.611 250.884 262.947 251.836C263.283 252.769 263.451 253.805 263.451 254.944ZM260.735 254.944C260.735 253.301 260.362 252.004 259.615 251.052C258.887 250.081 257.889 249.596 256.619 249.596C255.35 249.596 254.342 250.081 253.595 251.052C252.867 252.004 252.503 253.301 252.503 254.944C252.503 256.586 252.867 257.893 253.595 258.864C254.342 259.816 255.35 260.292 256.619 260.292C257.889 260.292 258.887 259.816 259.615 258.864C260.362 257.893 260.735 256.586 260.735 254.944Z" fill="black"/>
<path d="M276.199 262.224H273.595V247.664H276.199V262.224ZM274.883 245.032C274.417 245.032 274.015 244.882 273.679 244.584C273.362 244.266 273.203 243.846 273.203 243.324C273.203 242.801 273.362 242.39 273.679 242.092C274.015 241.774 274.417 241.616 274.883 241.616C275.35 241.616 275.742 241.774 276.059 242.092C276.395 242.39 276.563 242.801 276.563 243.324C276.563 243.846 276.395 244.266 276.059 244.584C275.742 244.882 275.35 245.032 274.883 245.032Z" fill="black"/>
<path d="M280.677 248.084C281.275 247.934 282.059 247.776 283.029 247.608C284.019 247.44 285.157 247.356 286.445 247.356C287.379 247.356 288.163 247.486 288.797 247.748C289.432 247.99 289.964 248.354 290.393 248.84C290.524 248.746 290.729 248.616 291.009 248.448C291.289 248.28 291.635 248.121 292.045 247.972C292.456 247.804 292.913 247.664 293.417 247.552C293.921 247.421 294.463 247.356 295.041 247.356C296.161 247.356 297.076 247.524 297.785 247.86C298.495 248.177 299.045 248.634 299.437 249.232C299.848 249.829 300.119 250.538 300.249 251.36C300.399 252.181 300.473 253.077 300.473 254.048V262.224H297.869V254.608C297.869 253.749 297.823 253.012 297.729 252.396C297.655 251.78 297.496 251.266 297.253 250.856C297.029 250.445 296.712 250.146 296.301 249.96C295.909 249.754 295.396 249.652 294.761 249.652C293.884 249.652 293.156 249.773 292.577 250.016C292.017 250.24 291.635 250.445 291.429 250.632C291.579 251.117 291.691 251.649 291.765 252.228C291.84 252.806 291.877 253.413 291.877 254.048V262.224H289.273V254.608C289.273 253.749 289.227 253.012 289.133 252.396C289.04 251.78 288.872 251.266 288.629 250.856C288.405 250.445 288.088 250.146 287.677 249.96C287.285 249.754 286.781 249.652 286.165 249.652C285.904 249.652 285.624 249.661 285.325 249.68C285.027 249.698 284.737 249.726 284.457 249.764C284.196 249.782 283.953 249.81 283.729 249.848C283.505 249.885 283.356 249.913 283.281 249.932V262.224H280.677V248.084Z" fill="black"/>
<path d="M309.723 260.348C310.339 260.348 310.88 260.338 311.347 260.32C311.832 260.282 312.233 260.226 312.551 260.152V255.812C312.364 255.718 312.056 255.644 311.627 255.588C311.216 255.513 310.712 255.476 310.115 255.476C309.723 255.476 309.303 255.504 308.855 255.56C308.425 255.616 308.024 255.737 307.651 255.924C307.296 256.092 306.997 256.334 306.755 256.652C306.512 256.95 306.391 257.352 306.391 257.856C306.391 258.789 306.689 259.442 307.287 259.816C307.884 260.17 308.696 260.348 309.723 260.348ZM309.499 247.3C310.544 247.3 311.421 247.44 312.131 247.72C312.859 247.981 313.437 248.364 313.867 248.868C314.315 249.353 314.632 249.941 314.819 250.632C315.005 251.304 315.099 252.05 315.099 252.872V261.972C314.875 262.009 314.557 262.065 314.147 262.14C313.755 262.196 313.307 262.252 312.803 262.308C312.299 262.364 311.748 262.41 311.151 262.448C310.572 262.504 309.993 262.532 309.415 262.532C308.593 262.532 307.837 262.448 307.147 262.28C306.456 262.112 305.859 261.85 305.355 261.496C304.851 261.122 304.459 260.637 304.179 260.04C303.899 259.442 303.759 258.724 303.759 257.884C303.759 257.081 303.917 256.39 304.235 255.812C304.571 255.233 305.019 254.766 305.579 254.412C306.139 254.057 306.792 253.796 307.539 253.628C308.285 253.46 309.069 253.376 309.891 253.376C310.152 253.376 310.423 253.394 310.703 253.432C310.983 253.45 311.244 253.488 311.487 253.544C311.748 253.581 311.972 253.618 312.159 253.656C312.345 253.693 312.476 253.721 312.551 253.74V253.012C312.551 252.582 312.504 252.162 312.411 251.752C312.317 251.322 312.149 250.949 311.907 250.632C311.664 250.296 311.328 250.034 310.899 249.848C310.488 249.642 309.947 249.54 309.275 249.54C308.416 249.54 307.66 249.605 307.007 249.736C306.372 249.848 305.896 249.969 305.579 250.1L305.271 247.944C305.607 247.794 306.167 247.654 306.951 247.524C307.735 247.374 308.584 247.3 309.499 247.3Z" fill="black"/>
<path d="M328.552 260.768C328.328 260.917 327.889 261.113 327.236 261.356C326.601 261.58 325.854 261.692 324.996 261.692C324.118 261.692 323.288 261.552 322.504 261.272C321.738 260.992 321.066 260.562 320.488 259.984C319.909 259.386 319.452 258.649 319.116 257.772C318.78 256.894 318.612 255.849 318.612 254.636C318.612 253.572 318.77 252.601 319.088 251.724C319.405 250.828 319.862 250.062 320.46 249.428C321.076 248.774 321.822 248.27 322.7 247.916C323.577 247.542 324.566 247.356 325.668 247.356C326.881 247.356 327.936 247.449 328.832 247.636C329.746 247.804 330.512 247.962 331.128 248.112V261.104C331.128 263.344 330.549 264.968 329.392 265.976C328.234 266.984 326.48 267.488 324.128 267.488C323.213 267.488 322.345 267.413 321.524 267.264C320.721 267.114 320.021 266.937 319.424 266.732L319.9 264.464C320.422 264.669 321.057 264.846 321.804 264.996C322.569 265.164 323.362 265.248 324.184 265.248C325.733 265.248 326.844 264.94 327.516 264.324C328.206 263.708 328.552 262.728 328.552 261.384V260.768ZM328.524 249.96C328.262 249.885 327.908 249.82 327.46 249.764C327.03 249.689 326.442 249.652 325.696 249.652C324.296 249.652 323.213 250.109 322.448 251.024C321.701 251.938 321.328 253.152 321.328 254.664C321.328 255.504 321.43 256.222 321.636 256.82C321.86 257.417 322.149 257.912 322.504 258.304C322.877 258.696 323.297 258.985 323.764 259.172C324.249 259.358 324.744 259.452 325.248 259.452C325.938 259.452 326.573 259.358 327.152 259.172C327.73 258.966 328.188 258.733 328.524 258.472V249.96Z" fill="black"/>
<path d="M334.799 254.972C334.799 253.684 334.986 252.564 335.359 251.612C335.732 250.641 336.227 249.838 336.843 249.204C337.459 248.569 338.168 248.093 338.971 247.776C339.774 247.458 340.595 247.3 341.435 247.3C343.395 247.3 344.898 247.916 345.943 249.148C346.988 250.361 347.511 252.218 347.511 254.72C347.511 254.832 347.511 254.981 347.511 255.168C347.511 255.336 347.502 255.494 347.483 255.644H337.515C337.627 257.156 338.066 258.304 338.831 259.088C339.596 259.872 340.791 260.264 342.415 260.264C343.33 260.264 344.095 260.189 344.711 260.04C345.346 259.872 345.822 259.713 346.139 259.564L346.503 261.748C346.186 261.916 345.626 262.093 344.823 262.28C344.039 262.466 343.143 262.56 342.135 262.56C340.866 262.56 339.764 262.373 338.831 262C337.916 261.608 337.16 261.076 336.563 260.404C335.966 259.732 335.518 258.938 335.219 258.024C334.939 257.09 334.799 256.073 334.799 254.972ZM344.795 253.544C344.814 252.368 344.515 251.406 343.899 250.66C343.302 249.894 342.471 249.512 341.407 249.512C340.81 249.512 340.278 249.633 339.811 249.876C339.363 250.1 338.98 250.398 338.663 250.772C338.346 251.145 338.094 251.574 337.907 252.06C337.739 252.545 337.627 253.04 337.571 253.544H344.795Z" fill="black"/>
</svg>
