<svg width="350" height="224" viewBox="0 0 350 224" fill="none" xmlns="http://www.w3.org/2000/svg">
<path d="M0 0H350V224H0V0Z" fill="#D9D9D9"/>
<path d="M149.398 141C149.163 140.605 148.891 140.163 148.582 139.672C148.283 139.181 147.958 138.675 147.606 138.152C147.254 137.619 146.886 137.08 146.502 136.536C146.129 135.992 145.755 135.469 145.382 134.968C145.009 134.456 144.646 133.976 144.294 133.528C143.942 133.08 143.617 132.685 143.318 132.344V141H141.798V129.912H143.03C143.531 130.445 144.065 131.069 144.63 131.784C145.206 132.488 145.771 133.219 146.326 133.976C146.891 134.723 147.419 135.459 147.91 136.184C148.411 136.909 148.833 137.555 149.174 138.12V129.912H150.694V141H149.398Z" fill="black"/>
<path d="M160.687 136.84C160.687 137.501 160.59 138.099 160.398 138.632C160.206 139.165 159.935 139.624 159.583 140.008C159.241 140.392 158.831 140.691 158.351 140.904C157.871 141.107 157.348 141.208 156.783 141.208C156.217 141.208 155.695 141.107 155.215 140.904C154.735 140.691 154.319 140.392 153.967 140.008C153.625 139.624 153.359 139.165 153.167 138.632C152.975 138.099 152.879 137.501 152.879 136.84C152.879 136.189 152.975 135.597 153.167 135.064C153.359 134.52 153.625 134.056 153.967 133.672C154.319 133.288 154.735 132.995 155.215 132.792C155.695 132.579 156.217 132.472 156.783 132.472C157.348 132.472 157.871 132.579 158.351 132.792C158.831 132.995 159.241 133.288 159.583 133.672C159.935 134.056 160.206 134.52 160.398 135.064C160.59 135.597 160.687 136.189 160.687 136.84ZM159.135 136.84C159.135 135.901 158.921 135.16 158.495 134.616C158.079 134.061 157.508 133.784 156.783 133.784C156.057 133.784 155.481 134.061 155.055 134.616C154.639 135.16 154.431 135.901 154.431 136.84C154.431 137.779 154.639 138.525 155.055 139.08C155.481 139.624 156.057 139.896 156.783 139.896C157.508 139.896 158.079 139.624 158.495 139.08C158.921 138.525 159.135 137.779 159.135 136.84Z" fill="black"/>
<path d="M167.971 141H166.483V132.68H167.971V141ZM167.219 131.176C166.952 131.176 166.723 131.091 166.531 130.92C166.35 130.739 166.259 130.499 166.259 130.2C166.259 129.901 166.35 129.667 166.531 129.496C166.723 129.315 166.952 129.224 167.219 129.224C167.486 129.224 167.71 129.315 167.891 129.496C168.083 129.667 168.179 129.901 168.179 130.2C168.179 130.499 168.083 130.739 167.891 130.92C167.71 131.091 167.486 131.176 167.219 131.176Z" fill="black"/>
<path d="M170.53 132.92C170.871 132.835 171.319 132.744 171.874 132.648C172.439 132.552 173.09 132.504 173.826 132.504C174.359 132.504 174.807 132.579 175.17 132.728C175.533 132.867 175.837 133.075 176.082 133.352C176.157 133.299 176.274 133.224 176.434 133.128C176.594 133.032 176.791 132.941 177.026 132.856C177.261 132.76 177.522 132.68 177.81 132.616C178.098 132.541 178.407 132.504 178.738 132.504C179.378 132.504 179.901 132.6 180.306 132.792C180.711 132.973 181.026 133.235 181.25 133.576C181.485 133.917 181.639 134.323 181.714 134.792C181.799 135.261 181.842 135.773 181.842 136.328V141H180.354V136.648C180.354 136.157 180.327 135.736 180.274 135.384C180.231 135.032 180.141 134.739 180.002 134.504C179.874 134.269 179.693 134.099 179.458 133.992C179.234 133.875 178.941 133.816 178.578 133.816C178.077 133.816 177.661 133.885 177.33 134.024C177.01 134.152 176.791 134.269 176.674 134.376C176.759 134.653 176.823 134.957 176.866 135.288C176.909 135.619 176.93 135.965 176.93 136.328V141H175.442V136.648C175.442 136.157 175.415 135.736 175.362 135.384C175.309 135.032 175.213 134.739 175.074 134.504C174.946 134.269 174.765 134.099 174.53 133.992C174.306 133.875 174.018 133.816 173.666 133.816C173.517 133.816 173.357 133.821 173.186 133.832C173.015 133.843 172.85 133.859 172.69 133.88C172.541 133.891 172.402 133.907 172.274 133.928C172.146 133.949 172.061 133.965 172.018 133.976V141H170.53V132.92Z" fill="black"/>
<path d="M187.127 139.928C187.479 139.928 187.789 139.923 188.055 139.912C188.333 139.891 188.562 139.859 188.743 139.816V137.336C188.637 137.283 188.461 137.24 188.215 137.208C187.981 137.165 187.693 137.144 187.351 137.144C187.127 137.144 186.887 137.16 186.631 137.192C186.386 137.224 186.157 137.293 185.943 137.4C185.741 137.496 185.57 137.635 185.431 137.816C185.293 137.987 185.223 138.216 185.223 138.504C185.223 139.037 185.394 139.411 185.735 139.624C186.077 139.827 186.541 139.928 187.127 139.928ZM186.999 132.472C187.597 132.472 188.098 132.552 188.503 132.712C188.919 132.861 189.25 133.08 189.495 133.368C189.751 133.645 189.933 133.981 190.039 134.376C190.146 134.76 190.199 135.187 190.199 135.656V140.856C190.071 140.877 189.89 140.909 189.655 140.952C189.431 140.984 189.175 141.016 188.887 141.048C188.599 141.08 188.285 141.107 187.943 141.128C187.613 141.16 187.282 141.176 186.951 141.176C186.482 141.176 186.05 141.128 185.655 141.032C185.261 140.936 184.919 140.787 184.631 140.584C184.343 140.371 184.119 140.093 183.959 139.752C183.799 139.411 183.719 139 183.719 138.52C183.719 138.061 183.81 137.667 183.991 137.336C184.183 137.005 184.439 136.739 184.759 136.536C185.079 136.333 185.453 136.184 185.879 136.088C186.306 135.992 186.754 135.944 187.223 135.944C187.373 135.944 187.527 135.955 187.687 135.976C187.847 135.987 187.997 136.008 188.135 136.04C188.285 136.061 188.413 136.083 188.519 136.104C188.626 136.125 188.701 136.141 188.743 136.152V135.736C188.743 135.491 188.717 135.251 188.663 135.016C188.61 134.771 188.514 134.557 188.375 134.376C188.237 134.184 188.045 134.035 187.799 133.928C187.565 133.811 187.255 133.752 186.871 133.752C186.381 133.752 185.949 133.789 185.575 133.864C185.213 133.928 184.941 133.997 184.759 134.072L184.583 132.84C184.775 132.755 185.095 132.675 185.543 132.6C185.991 132.515 186.477 132.472 186.999 132.472Z" fill="black"/>
<path d="M197.887 140.168C197.759 140.253 197.508 140.365 197.135 140.504C196.772 140.632 196.345 140.696 195.855 140.696C195.353 140.696 194.879 140.616 194.431 140.456C193.993 140.296 193.609 140.051 193.279 139.72C192.948 139.379 192.687 138.957 192.495 138.456C192.303 137.955 192.207 137.357 192.207 136.664C192.207 136.056 192.297 135.501 192.479 135C192.66 134.488 192.921 134.051 193.263 133.688C193.615 133.315 194.041 133.027 194.543 132.824C195.044 132.611 195.609 132.504 196.239 132.504C196.932 132.504 197.535 132.557 198.047 132.664C198.569 132.76 199.007 132.851 199.359 132.936V140.36C199.359 141.64 199.028 142.568 198.367 143.144C197.705 143.72 196.703 144.008 195.359 144.008C194.836 144.008 194.34 143.965 193.871 143.88C193.412 143.795 193.012 143.693 192.671 143.576L192.943 142.28C193.241 142.397 193.604 142.499 194.031 142.584C194.468 142.68 194.921 142.728 195.391 142.728C196.276 142.728 196.911 142.552 197.295 142.2C197.689 141.848 197.887 141.288 197.887 140.52V140.168ZM197.871 133.992C197.721 133.949 197.519 133.912 197.263 133.88C197.017 133.837 196.681 133.816 196.255 133.816C195.455 133.816 194.836 134.077 194.399 134.6C193.972 135.123 193.759 135.816 193.759 136.68C193.759 137.16 193.817 137.571 193.935 137.912C194.063 138.253 194.228 138.536 194.431 138.76C194.644 138.984 194.884 139.149 195.151 139.256C195.428 139.363 195.711 139.416 195.999 139.416C196.393 139.416 196.756 139.363 197.087 139.256C197.417 139.139 197.679 139.005 197.871 138.856V133.992Z" fill="black"/>
<path d="M201.457 136.856C201.457 136.12 201.563 135.48 201.777 134.936C201.99 134.381 202.273 133.923 202.625 133.56C202.977 133.197 203.382 132.925 203.841 132.744C204.299 132.563 204.769 132.472 205.249 132.472C206.369 132.472 207.227 132.824 207.825 133.528C208.422 134.221 208.721 135.283 208.721 136.712C208.721 136.776 208.721 136.861 208.721 136.968C208.721 137.064 208.715 137.155 208.705 137.24H203.009C203.073 138.104 203.323 138.76 203.761 139.208C204.198 139.656 204.881 139.88 205.809 139.88C206.331 139.88 206.769 139.837 207.121 139.752C207.483 139.656 207.755 139.565 207.937 139.48L208.145 140.728C207.963 140.824 207.643 140.925 207.185 141.032C206.737 141.139 206.225 141.192 205.649 141.192C204.923 141.192 204.294 141.085 203.761 140.872C203.238 140.648 202.806 140.344 202.465 139.96C202.123 139.576 201.867 139.123 201.697 138.6C201.537 138.067 201.457 137.485 201.457 136.856ZM207.169 136.04C207.179 135.368 207.009 134.819 206.657 134.392C206.315 133.955 205.841 133.736 205.233 133.736C204.891 133.736 204.587 133.805 204.321 133.944C204.065 134.072 203.846 134.243 203.665 134.456C203.483 134.669 203.339 134.915 203.233 135.192C203.137 135.469 203.073 135.752 203.041 136.04H207.169Z" fill="black"/>
<path d="M147.08 157.928C147.432 157.928 147.742 157.923 148.008 157.912C148.286 157.891 148.515 157.859 148.696 157.816V155.336C148.59 155.283 148.414 155.24 148.168 155.208C147.934 155.165 147.646 155.144 147.304 155.144C147.08 155.144 146.84 155.16 146.584 155.192C146.339 155.224 146.11 155.293 145.896 155.4C145.694 155.496 145.523 155.635 145.384 155.816C145.246 155.987 145.176 156.216 145.176 156.504C145.176 157.037 145.347 157.411 145.688 157.624C146.03 157.827 146.494 157.928 147.08 157.928ZM146.952 150.472C147.55 150.472 148.051 150.552 148.456 150.712C148.872 150.861 149.203 151.08 149.448 151.368C149.704 151.645 149.886 151.981 149.992 152.376C150.099 152.76 150.152 153.187 150.152 153.656V158.856C150.024 158.877 149.843 158.909 149.608 158.952C149.384 158.984 149.128 159.016 148.84 159.048C148.552 159.08 148.238 159.107 147.896 159.128C147.566 159.16 147.235 159.176 146.904 159.176C146.435 159.176 146.003 159.128 145.608 159.032C145.214 158.936 144.872 158.787 144.584 158.584C144.296 158.371 144.072 158.093 143.912 157.752C143.752 157.411 143.672 157 143.672 156.52C143.672 156.061 143.763 155.667 143.944 155.336C144.136 155.005 144.392 154.739 144.712 154.536C145.032 154.333 145.406 154.184 145.832 154.088C146.259 153.992 146.707 153.944 147.176 153.944C147.326 153.944 147.48 153.955 147.64 153.976C147.8 153.987 147.95 154.008 148.088 154.04C148.238 154.061 148.366 154.083 148.472 154.104C148.579 154.125 148.654 154.141 148.696 154.152V153.736C148.696 153.491 148.67 153.251 148.616 153.016C148.563 152.771 148.467 152.557 148.328 152.376C148.19 152.184 147.998 152.035 147.752 151.928C147.518 151.811 147.208 151.752 146.824 151.752C146.334 151.752 145.902 151.789 145.528 151.864C145.166 151.928 144.894 151.997 144.712 152.072L144.536 150.84C144.728 150.755 145.048 150.675 145.496 150.6C145.944 150.515 146.43 150.472 146.952 150.472Z" fill="black"/>
<path d="M158.885 150.68C158.469 152.237 157.979 153.731 157.413 155.16C156.859 156.589 156.32 157.869 155.797 159H154.453C153.931 157.869 153.387 156.589 152.821 155.16C152.267 153.731 151.781 152.237 151.365 150.68H152.965C153.093 151.203 153.243 151.763 153.413 152.36C153.595 152.947 153.781 153.533 153.973 154.12C154.176 154.696 154.379 155.256 154.581 155.8C154.784 156.344 154.976 156.829 155.157 157.256C155.339 156.829 155.531 156.344 155.733 155.8C155.936 155.256 156.133 154.696 156.325 154.12C156.528 153.533 156.715 152.947 156.885 152.36C157.067 151.763 157.221 151.203 157.349 150.68H158.885Z" fill="black"/>
<path d="M163.237 157.928C163.589 157.928 163.898 157.923 164.165 157.912C164.442 157.891 164.671 157.859 164.853 157.816V155.336C164.746 155.283 164.57 155.24 164.325 155.208C164.09 155.165 163.802 155.144 163.461 155.144C163.237 155.144 162.997 155.16 162.741 155.192C162.495 155.224 162.266 155.293 162.053 155.4C161.85 155.496 161.679 155.635 161.541 155.816C161.402 155.987 161.333 156.216 161.333 156.504C161.333 157.037 161.503 157.411 161.845 157.624C162.186 157.827 162.65 157.928 163.237 157.928ZM163.109 150.472C163.706 150.472 164.207 150.552 164.613 150.712C165.029 150.861 165.359 151.08 165.605 151.368C165.861 151.645 166.042 151.981 166.149 152.376C166.255 152.76 166.309 153.187 166.309 153.656V158.856C166.181 158.877 165.999 158.909 165.765 158.952C165.541 158.984 165.285 159.016 164.997 159.048C164.709 159.08 164.394 159.107 164.053 159.128C163.722 159.16 163.391 159.176 163.061 159.176C162.591 159.176 162.159 159.128 161.765 159.032C161.37 158.936 161.029 158.787 160.741 158.584C160.453 158.371 160.229 158.093 160.069 157.752C159.909 157.411 159.829 157 159.829 156.52C159.829 156.061 159.919 155.667 160.101 155.336C160.293 155.005 160.549 154.739 160.869 154.536C161.189 154.333 161.562 154.184 161.989 154.088C162.415 153.992 162.863 153.944 163.333 153.944C163.482 153.944 163.637 153.955 163.797 153.976C163.957 153.987 164.106 154.008 164.245 154.04C164.394 154.061 164.522 154.083 164.629 154.104C164.735 154.125 164.81 154.141 164.853 154.152V153.736C164.853 153.491 164.826 153.251 164.773 153.016C164.719 152.771 164.623 152.557 164.485 152.376C164.346 152.184 164.154 152.035 163.909 151.928C163.674 151.811 163.365 151.752 162.981 151.752C162.49 151.752 162.058 151.789 161.685 151.864C161.322 151.928 161.05 151.997 160.869 152.072L160.693 150.84C160.885 150.755 161.205 150.675 161.653 150.6C162.101 150.515 162.586 150.472 163.109 150.472Z" fill="black"/>
<path d="M170.268 159H168.78V150.68H170.268V159ZM169.516 149.176C169.249 149.176 169.02 149.091 168.828 148.92C168.647 148.739 168.556 148.499 168.556 148.2C168.556 147.901 168.647 147.667 168.828 147.496C169.02 147.315 169.249 147.224 169.516 147.224C169.783 147.224 170.007 147.315 170.188 147.496C170.38 147.667 170.476 147.901 170.476 148.2C170.476 148.499 170.38 148.739 170.188 148.92C170.007 149.091 169.783 149.176 169.516 149.176Z" fill="black"/>
<path d="M175.323 159.16C174.406 159.139 173.755 158.941 173.371 158.568C172.987 158.195 172.795 157.613 172.795 156.824V146.84L174.283 146.584V156.584C174.283 156.829 174.304 157.032 174.347 157.192C174.39 157.352 174.459 157.48 174.555 157.576C174.651 157.672 174.779 157.747 174.939 157.8C175.099 157.843 175.296 157.88 175.531 157.912L175.323 159.16Z" fill="black"/>
<path d="M180.018 157.928C180.37 157.928 180.679 157.923 180.946 157.912C181.223 157.891 181.453 157.859 181.634 157.816V155.336C181.527 155.283 181.351 155.24 181.106 155.208C180.871 155.165 180.583 155.144 180.242 155.144C180.018 155.144 179.778 155.16 179.522 155.192C179.277 155.224 179.047 155.293 178.834 155.4C178.631 155.496 178.461 155.635 178.322 155.816C178.183 155.987 178.114 156.216 178.114 156.504C178.114 157.037 178.285 157.411 178.626 157.624C178.967 157.827 179.431 157.928 180.018 157.928ZM179.89 150.472C180.487 150.472 180.989 150.552 181.394 150.712C181.81 150.861 182.141 151.08 182.386 151.368C182.642 151.645 182.823 151.981 182.93 152.376C183.037 152.76 183.09 153.187 183.09 153.656V158.856C182.962 158.877 182.781 158.909 182.546 158.952C182.322 158.984 182.066 159.016 181.778 159.048C181.49 159.08 181.175 159.107 180.834 159.128C180.503 159.16 180.173 159.176 179.842 159.176C179.373 159.176 178.941 159.128 178.546 159.032C178.151 158.936 177.81 158.787 177.522 158.584C177.234 158.371 177.01 158.093 176.85 157.752C176.69 157.411 176.61 157 176.61 156.52C176.61 156.061 176.701 155.667 176.882 155.336C177.074 155.005 177.33 154.739 177.65 154.536C177.97 154.333 178.343 154.184 178.77 154.088C179.197 153.992 179.645 153.944 180.114 153.944C180.263 153.944 180.418 153.955 180.578 153.976C180.738 153.987 180.887 154.008 181.026 154.04C181.175 154.061 181.303 154.083 181.41 154.104C181.517 154.125 181.591 154.141 181.634 154.152V153.736C181.634 153.491 181.607 153.251 181.554 153.016C181.501 152.771 181.405 152.557 181.266 152.376C181.127 152.184 180.935 152.035 180.69 151.928C180.455 151.811 180.146 151.752 179.762 151.752C179.271 151.752 178.839 151.789 178.466 151.864C178.103 151.928 177.831 151.997 177.65 152.072L177.474 150.84C177.666 150.755 177.986 150.675 178.434 150.6C178.882 150.515 179.367 150.472 179.89 150.472Z" fill="black"/>
<path d="M187.049 151.048C187.231 150.931 187.503 150.808 187.865 150.68C188.239 150.552 188.665 150.488 189.145 150.488C189.743 150.488 190.271 150.595 190.729 150.808C191.199 151.021 191.593 151.32 191.913 151.704C192.233 152.088 192.473 152.547 192.633 153.08C192.804 153.613 192.889 154.2 192.889 154.84C192.889 155.512 192.788 156.12 192.585 156.664C192.393 157.197 192.116 157.651 191.753 158.024C191.391 158.397 190.953 158.685 190.441 158.888C189.929 159.091 189.353 159.192 188.713 159.192C188.02 159.192 187.407 159.144 186.873 159.048C186.34 158.952 185.903 158.856 185.561 158.76V146.84L187.049 146.584V151.048ZM187.049 157.704C187.199 157.747 187.407 157.789 187.673 157.832C187.951 157.864 188.292 157.88 188.697 157.88C189.497 157.88 190.137 157.619 190.617 157.096C191.097 156.563 191.337 155.811 191.337 154.84C191.337 154.413 191.295 154.013 191.209 153.64C191.124 153.267 190.985 152.947 190.793 152.68C190.601 152.403 190.351 152.189 190.041 152.04C189.743 151.88 189.38 151.8 188.953 151.8C188.548 151.8 188.175 151.869 187.833 152.008C187.492 152.147 187.231 152.291 187.049 152.44V157.704Z" fill="black"/>
<path d="M197.479 159.16C196.562 159.139 195.911 158.941 195.527 158.568C195.143 158.195 194.951 157.613 194.951 156.824V146.84L196.439 146.584V156.584C196.439 156.829 196.46 157.032 196.503 157.192C196.546 157.352 196.615 157.48 196.711 157.576C196.807 157.672 196.935 157.747 197.095 157.8C197.255 157.843 197.452 157.88 197.687 157.912L197.479 159.16Z" fill="black"/>
<path d="M198.894 154.856C198.894 154.12 199.001 153.48 199.214 152.936C199.427 152.381 199.71 151.923 200.062 151.56C200.414 151.197 200.819 150.925 201.278 150.744C201.737 150.563 202.206 150.472 202.686 150.472C203.806 150.472 204.665 150.824 205.262 151.528C205.859 152.221 206.158 153.283 206.158 154.712C206.158 154.776 206.158 154.861 206.158 154.968C206.158 155.064 206.153 155.155 206.142 155.24H200.446C200.51 156.104 200.761 156.76 201.198 157.208C201.635 157.656 202.318 157.88 203.246 157.88C203.769 157.88 204.206 157.837 204.558 157.752C204.921 157.656 205.193 157.565 205.374 157.48L205.582 158.728C205.401 158.824 205.081 158.925 204.622 159.032C204.174 159.139 203.662 159.192 203.086 159.192C202.361 159.192 201.731 159.085 201.198 158.872C200.675 158.648 200.243 158.344 199.902 157.96C199.561 157.576 199.305 157.123 199.134 156.6C198.974 156.067 198.894 155.485 198.894 154.856ZM204.606 154.04C204.617 153.368 204.446 152.819 204.094 152.392C203.753 151.955 203.278 151.736 202.67 151.736C202.329 151.736 202.025 151.805 201.758 151.944C201.502 152.072 201.283 152.243 201.102 152.456C200.921 152.669 200.777 152.915 200.67 153.192C200.574 153.469 200.51 153.752 200.478 154.04H204.606Z" fill="black"/>
<path d="M165.734 76.9813C165.734 78.687 165.056 80.3228 163.85 81.5289C162.644 82.735 161.008 83.4125 159.302 83.4125C157.597 83.4125 155.961 82.735 154.755 81.5289C153.549 80.3228 152.871 78.687 152.871 76.9813C152.871 75.2756 153.549 73.6398 154.755 72.4337C155.961 71.2276 157.597 70.55 159.302 70.55C161.008 70.55 162.644 71.2276 163.85 72.4337C165.056 73.6398 165.734 75.2756 165.734 76.9813Z" fill="black"/>
<path d="M148.584 57.6875C146.309 57.6875 144.128 58.591 142.52 60.1991C140.912 61.8072 140.009 63.9883 140.009 66.2625V109.138C140.009 111.412 140.912 113.593 142.52 115.201C144.128 116.809 146.309 117.713 148.584 117.713H200.034C202.308 117.713 204.489 116.809 206.097 115.201C207.705 113.593 208.609 111.412 208.609 109.138V66.2625C208.609 63.9883 207.705 61.8072 206.097 60.1991C204.489 58.591 202.308 57.6875 200.034 57.6875H148.584ZM200.034 61.975C201.171 61.975 202.261 62.4268 203.065 63.2308C203.869 64.0349 204.321 65.1254 204.321 66.2625V94.1313L188.127 85.7835C187.725 85.5821 187.27 85.5123 186.826 85.5838C186.382 85.6554 185.972 85.8647 185.653 86.1823L169.747 102.089L158.342 94.4914C157.93 94.2173 157.436 94.094 156.944 94.1424C156.452 94.1909 155.991 94.4081 155.641 94.7573L144.296 104.85V66.2625C144.296 65.1254 144.748 64.0349 145.552 63.2308C146.356 62.4268 147.446 61.975 148.584 61.975H200.034Z" fill="black"/>
</svg>
