<svg width="250" height="160" viewBox="0 0 250 160" fill="none" xmlns="http://www.w3.org/2000/svg">
<path d="M0 0H250V160H0V0Z" fill="#D9D9D9"/>
<path d="M99.3979 113C99.1632 112.605 98.8912 112.163 98.5819 111.672C98.2832 111.181 97.9579 110.675 97.6059 110.152C97.2539 109.619 96.8859 109.08 96.5019 108.536C96.1285 107.992 95.7552 107.469 95.3819 106.968C95.0085 106.456 94.6459 105.976 94.2939 105.528C93.9419 105.08 93.6165 104.685 93.3179 104.344V113H91.7979V101.912H93.0299C93.5312 102.445 94.0645 103.069 94.6299 103.784C95.2059 104.488 95.7712 105.219 96.3259 105.976C96.8912 106.723 97.4192 107.459 97.9099 108.184C98.4112 108.909 98.8325 109.555 99.1739 110.12V101.912H100.694V113H99.3979Z" fill="black"/>
<path d="M110.687 108.84C110.687 109.501 110.59 110.099 110.398 110.632C110.206 111.165 109.935 111.624 109.583 112.008C109.241 112.392 108.831 112.691 108.351 112.904C107.871 113.107 107.348 113.208 106.783 113.208C106.217 113.208 105.695 113.107 105.215 112.904C104.735 112.691 104.318 112.392 103.966 112.008C103.625 111.624 103.359 111.165 103.167 110.632C102.975 110.099 102.879 109.501 102.879 108.84C102.879 108.189 102.975 107.597 103.167 107.064C103.359 106.52 103.625 106.056 103.966 105.672C104.318 105.288 104.735 104.995 105.215 104.792C105.695 104.579 106.217 104.472 106.783 104.472C107.348 104.472 107.871 104.579 108.351 104.792C108.831 104.995 109.241 105.288 109.583 105.672C109.935 106.056 110.206 106.52 110.398 107.064C110.59 107.597 110.687 108.189 110.687 108.84ZM109.134 108.84C109.134 107.901 108.921 107.16 108.494 106.616C108.078 106.061 107.508 105.784 106.783 105.784C106.057 105.784 105.481 106.061 105.055 106.616C104.639 107.16 104.43 107.901 104.43 108.84C104.43 109.779 104.639 110.525 105.055 111.08C105.481 111.624 106.057 111.896 106.783 111.896C107.508 111.896 108.078 111.624 108.494 111.08C108.921 110.525 109.134 109.779 109.134 108.84Z" fill="black"/>
<path d="M117.971 113H116.483V104.68H117.971V113ZM117.219 103.176C116.952 103.176 116.723 103.091 116.531 102.92C116.35 102.739 116.259 102.499 116.259 102.2C116.259 101.901 116.35 101.667 116.531 101.496C116.723 101.315 116.952 101.224 117.219 101.224C117.486 101.224 117.71 101.315 117.891 101.496C118.083 101.667 118.179 101.901 118.179 102.2C118.179 102.499 118.083 102.739 117.891 102.92C117.71 103.091 117.486 103.176 117.219 103.176Z" fill="black"/>
<path d="M120.53 104.92C120.871 104.835 121.319 104.744 121.874 104.648C122.439 104.552 123.09 104.504 123.826 104.504C124.359 104.504 124.807 104.579 125.17 104.728C125.533 104.867 125.837 105.075 126.082 105.352C126.157 105.299 126.274 105.224 126.434 105.128C126.594 105.032 126.791 104.941 127.026 104.856C127.261 104.76 127.522 104.68 127.81 104.616C128.098 104.541 128.407 104.504 128.738 104.504C129.378 104.504 129.901 104.6 130.306 104.792C130.711 104.973 131.026 105.235 131.25 105.576C131.485 105.917 131.639 106.323 131.714 106.792C131.799 107.261 131.842 107.773 131.842 108.328V113H130.354V108.648C130.354 108.157 130.327 107.736 130.274 107.384C130.231 107.032 130.141 106.739 130.002 106.504C129.874 106.269 129.693 106.099 129.458 105.992C129.234 105.875 128.941 105.816 128.578 105.816C128.077 105.816 127.661 105.885 127.33 106.024C127.01 106.152 126.791 106.269 126.674 106.376C126.759 106.653 126.823 106.957 126.866 107.288C126.909 107.619 126.93 107.965 126.93 108.328V113H125.442V108.648C125.442 108.157 125.415 107.736 125.362 107.384C125.309 107.032 125.213 106.739 125.074 106.504C124.946 106.269 124.765 106.099 124.53 105.992C124.306 105.875 124.018 105.816 123.666 105.816C123.517 105.816 123.357 105.821 123.186 105.832C123.015 105.843 122.85 105.859 122.69 105.88C122.541 105.891 122.402 105.907 122.274 105.928C122.146 105.949 122.061 105.965 122.018 105.976V113H120.53V104.92Z" fill="black"/>
<path d="M137.127 111.928C137.479 111.928 137.789 111.923 138.055 111.912C138.333 111.891 138.562 111.859 138.743 111.816V109.336C138.637 109.283 138.461 109.24 138.215 109.208C137.981 109.165 137.693 109.144 137.351 109.144C137.127 109.144 136.887 109.16 136.631 109.192C136.386 109.224 136.157 109.293 135.943 109.4C135.741 109.496 135.57 109.635 135.431 109.816C135.293 109.987 135.223 110.216 135.223 110.504C135.223 111.037 135.394 111.411 135.735 111.624C136.077 111.827 136.541 111.928 137.127 111.928ZM136.999 104.472C137.597 104.472 138.098 104.552 138.503 104.712C138.919 104.861 139.25 105.08 139.495 105.368C139.751 105.645 139.933 105.981 140.039 106.376C140.146 106.76 140.199 107.187 140.199 107.656V112.856C140.071 112.877 139.89 112.909 139.655 112.952C139.431 112.984 139.175 113.016 138.887 113.048C138.599 113.08 138.285 113.107 137.943 113.128C137.613 113.16 137.282 113.176 136.951 113.176C136.482 113.176 136.05 113.128 135.655 113.032C135.261 112.936 134.919 112.787 134.631 112.584C134.343 112.371 134.119 112.093 133.959 111.752C133.799 111.411 133.719 111 133.719 110.52C133.719 110.061 133.81 109.667 133.991 109.336C134.183 109.005 134.439 108.739 134.759 108.536C135.079 108.333 135.453 108.184 135.879 108.088C136.306 107.992 136.754 107.944 137.223 107.944C137.373 107.944 137.527 107.955 137.687 107.976C137.847 107.987 137.997 108.008 138.135 108.04C138.285 108.061 138.413 108.083 138.519 108.104C138.626 108.125 138.701 108.141 138.743 108.152V107.736C138.743 107.491 138.717 107.251 138.663 107.016C138.61 106.771 138.514 106.557 138.375 106.376C138.237 106.184 138.045 106.035 137.799 105.928C137.565 105.811 137.255 105.752 136.871 105.752C136.381 105.752 135.949 105.789 135.575 105.864C135.213 105.928 134.941 105.997 134.759 106.072L134.583 104.84C134.775 104.755 135.095 104.675 135.543 104.6C135.991 104.515 136.477 104.472 136.999 104.472Z" fill="black"/>
<path d="M147.887 112.168C147.759 112.253 147.508 112.365 147.135 112.504C146.772 112.632 146.345 112.696 145.855 112.696C145.353 112.696 144.879 112.616 144.431 112.456C143.993 112.296 143.609 112.051 143.279 111.72C142.948 111.379 142.687 110.957 142.495 110.456C142.303 109.955 142.207 109.357 142.207 108.664C142.207 108.056 142.297 107.501 142.479 107C142.66 106.488 142.921 106.051 143.263 105.688C143.615 105.315 144.041 105.027 144.543 104.824C145.044 104.611 145.609 104.504 146.239 104.504C146.932 104.504 147.535 104.557 148.047 104.664C148.569 104.76 149.007 104.851 149.359 104.936V112.36C149.359 113.64 149.028 114.568 148.367 115.144C147.705 115.72 146.703 116.008 145.359 116.008C144.836 116.008 144.34 115.965 143.871 115.88C143.412 115.795 143.012 115.693 142.671 115.576L142.943 114.28C143.241 114.397 143.604 114.499 144.031 114.584C144.468 114.68 144.921 114.728 145.391 114.728C146.276 114.728 146.911 114.552 147.295 114.2C147.689 113.848 147.887 113.288 147.887 112.52V112.168ZM147.871 105.992C147.721 105.949 147.519 105.912 147.263 105.88C147.017 105.837 146.681 105.816 146.255 105.816C145.455 105.816 144.836 106.077 144.399 106.6C143.972 107.123 143.759 107.816 143.759 108.68C143.759 109.16 143.817 109.571 143.935 109.912C144.063 110.253 144.228 110.536 144.431 110.76C144.644 110.984 144.884 111.149 145.151 111.256C145.428 111.363 145.711 111.416 145.999 111.416C146.393 111.416 146.756 111.363 147.087 111.256C147.417 111.139 147.679 111.005 147.871 110.856V105.992Z" fill="black"/>
<path d="M151.457 108.856C151.457 108.12 151.563 107.48 151.777 106.936C151.99 106.381 152.273 105.923 152.625 105.56C152.977 105.197 153.382 104.925 153.841 104.744C154.299 104.563 154.769 104.472 155.249 104.472C156.369 104.472 157.227 104.824 157.825 105.528C158.422 106.221 158.721 107.283 158.721 108.712C158.721 108.776 158.721 108.861 158.721 108.968C158.721 109.064 158.715 109.155 158.705 109.24H153.009C153.073 110.104 153.323 110.76 153.761 111.208C154.198 111.656 154.881 111.88 155.809 111.88C156.331 111.88 156.769 111.837 157.121 111.752C157.483 111.656 157.755 111.565 157.937 111.48L158.145 112.728C157.963 112.824 157.643 112.925 157.185 113.032C156.737 113.139 156.225 113.192 155.649 113.192C154.923 113.192 154.294 113.085 153.761 112.872C153.238 112.648 152.806 112.344 152.465 111.96C152.123 111.576 151.867 111.123 151.697 110.6C151.537 110.067 151.457 109.485 151.457 108.856ZM157.169 108.04C157.179 107.368 157.009 106.819 156.657 106.392C156.315 105.955 155.841 105.736 155.233 105.736C154.891 105.736 154.587 105.805 154.321 105.944C154.065 106.072 153.846 106.243 153.665 106.456C153.483 106.669 153.339 106.915 153.233 107.192C153.137 107.469 153.073 107.752 153.041 108.04H157.169Z" fill="black"/>
<path d="M118.381 62.8438C118.381 64.0621 117.897 65.2305 117.036 66.092C116.174 66.9535 115.006 67.4375 113.787 67.4375C112.569 67.4375 111.401 66.9535 110.539 66.092C109.678 65.2305 109.194 64.0621 109.194 62.8438C109.194 61.6254 109.678 60.457 110.539 59.5955C111.401 58.734 112.569 58.25 113.787 58.25C115.006 58.25 116.174 58.734 117.036 59.5955C117.897 60.457 118.381 61.6254 118.381 62.8438Z" fill="black"/>
<path d="M106.131 49.0625C104.507 49.0625 102.949 49.7078 101.8 50.8565C100.651 52.0051 100.006 53.563 100.006 55.1875V85.8125C100.006 87.437 100.651 88.9949 101.8 90.1435C102.949 91.2922 104.507 91.9375 106.131 91.9375H142.881C144.506 91.9375 146.063 91.2922 147.212 90.1435C148.361 88.9949 149.006 87.437 149.006 85.8125V55.1875C149.006 53.563 148.361 52.0051 147.212 50.8565C146.063 49.7078 144.506 49.0625 142.881 49.0625H106.131ZM142.881 52.125C143.693 52.125 144.472 52.4477 145.047 53.022C145.621 53.5963 145.944 54.3753 145.944 55.1875V75.0938L134.377 69.1311C134.089 68.9872 133.764 68.9373 133.447 68.9884C133.13 69.0395 132.837 69.1891 132.609 69.4159L121.248 80.7777L113.101 75.351C112.807 75.1552 112.454 75.0671 112.103 75.1017C111.751 75.1363 111.422 75.2915 111.172 75.5409L103.069 82.75V55.1875C103.069 54.3753 103.391 53.5963 103.966 53.022C104.54 52.4477 105.319 52.125 106.131 52.125H142.881Z" fill="black"/>
</svg>
