<svg width="350" height="226" viewBox="0 0 350 226" fill="none" xmlns="http://www.w3.org/2000/svg">
<rect width="350" height="226" fill="#D9D9D9"/>
<path d="M149.398 155C149.163 154.605 148.891 154.163 148.582 153.672C148.283 153.181 147.958 152.675 147.606 152.152C147.254 151.619 146.886 151.08 146.502 150.536C146.129 149.992 145.755 149.469 145.382 148.968C145.009 148.456 144.646 147.976 144.294 147.528C143.942 147.08 143.617 146.685 143.318 146.344V155H141.798V143.912H143.03C143.531 144.445 144.065 145.069 144.63 145.784C145.206 146.488 145.771 147.219 146.326 147.976C146.891 148.723 147.419 149.459 147.91 150.184C148.411 150.909 148.833 151.555 149.174 152.12V143.912H150.694V155H149.398Z" fill="black"/>
<path d="M160.686 150.84C160.686 151.501 160.59 152.099 160.398 152.632C160.206 153.165 159.934 153.624 159.582 154.008C159.241 154.392 158.83 154.691 158.35 154.904C157.87 155.107 157.348 155.208 156.782 155.208C156.217 155.208 155.694 155.107 155.214 154.904C154.734 154.691 154.318 154.392 153.966 154.008C153.625 153.624 153.358 153.165 153.166 152.632C152.974 152.099 152.878 151.501 152.878 150.84C152.878 150.189 152.974 149.597 153.166 149.064C153.358 148.52 153.625 148.056 153.966 147.672C154.318 147.288 154.734 146.995 155.214 146.792C155.694 146.579 156.217 146.472 156.782 146.472C157.348 146.472 157.87 146.579 158.35 146.792C158.83 146.995 159.241 147.288 159.582 147.672C159.934 148.056 160.206 148.52 160.398 149.064C160.59 149.597 160.686 150.189 160.686 150.84ZM159.134 150.84C159.134 149.901 158.921 149.16 158.494 148.616C158.078 148.061 157.508 147.784 156.782 147.784C156.057 147.784 155.481 148.061 155.054 148.616C154.638 149.16 154.43 149.901 154.43 150.84C154.43 151.779 154.638 152.525 155.054 153.08C155.481 153.624 156.057 153.896 156.782 153.896C157.508 153.896 158.078 153.624 158.494 153.08C158.921 152.525 159.134 151.779 159.134 150.84Z" fill="black"/>
<path d="M167.971 155H166.483V146.68H167.971V155ZM167.219 145.176C166.952 145.176 166.723 145.091 166.531 144.92C166.35 144.739 166.259 144.499 166.259 144.2C166.259 143.901 166.35 143.667 166.531 143.496C166.723 143.315 166.952 143.224 167.219 143.224C167.486 143.224 167.71 143.315 167.891 143.496C168.083 143.667 168.179 143.901 168.179 144.2C168.179 144.499 168.083 144.739 167.891 144.92C167.71 145.091 167.486 145.176 167.219 145.176Z" fill="black"/>
<path d="M170.53 146.92C170.871 146.835 171.319 146.744 171.874 146.648C172.439 146.552 173.09 146.504 173.826 146.504C174.359 146.504 174.807 146.579 175.17 146.728C175.533 146.867 175.837 147.075 176.082 147.352C176.157 147.299 176.274 147.224 176.434 147.128C176.594 147.032 176.791 146.941 177.026 146.856C177.261 146.76 177.522 146.68 177.81 146.616C178.098 146.541 178.407 146.504 178.738 146.504C179.378 146.504 179.901 146.6 180.306 146.792C180.711 146.973 181.026 147.235 181.25 147.576C181.485 147.917 181.639 148.323 181.714 148.792C181.799 149.261 181.842 149.773 181.842 150.328V155H180.354V150.648C180.354 150.157 180.327 149.736 180.274 149.384C180.231 149.032 180.141 148.739 180.002 148.504C179.874 148.269 179.693 148.099 179.458 147.992C179.234 147.875 178.941 147.816 178.578 147.816C178.077 147.816 177.661 147.885 177.33 148.024C177.01 148.152 176.791 148.269 176.674 148.376C176.759 148.653 176.823 148.957 176.866 149.288C176.909 149.619 176.93 149.965 176.93 150.328V155H175.442V150.648C175.442 150.157 175.415 149.736 175.362 149.384C175.309 149.032 175.213 148.739 175.074 148.504C174.946 148.269 174.765 148.099 174.53 147.992C174.306 147.875 174.018 147.816 173.666 147.816C173.517 147.816 173.357 147.821 173.186 147.832C173.015 147.843 172.85 147.859 172.69 147.88C172.541 147.891 172.402 147.907 172.274 147.928C172.146 147.949 172.061 147.965 172.018 147.976V155H170.53V146.92Z" fill="black"/>
<path d="M187.127 153.928C187.479 153.928 187.789 153.923 188.055 153.912C188.333 153.891 188.562 153.859 188.743 153.816V151.336C188.637 151.283 188.461 151.24 188.215 151.208C187.981 151.165 187.693 151.144 187.351 151.144C187.127 151.144 186.887 151.16 186.631 151.192C186.386 151.224 186.157 151.293 185.943 151.4C185.741 151.496 185.57 151.635 185.431 151.816C185.293 151.987 185.223 152.216 185.223 152.504C185.223 153.037 185.394 153.411 185.735 153.624C186.077 153.827 186.541 153.928 187.127 153.928ZM186.999 146.472C187.597 146.472 188.098 146.552 188.503 146.712C188.919 146.861 189.25 147.08 189.495 147.368C189.751 147.645 189.933 147.981 190.039 148.376C190.146 148.76 190.199 149.187 190.199 149.656V154.856C190.071 154.877 189.89 154.909 189.655 154.952C189.431 154.984 189.175 155.016 188.887 155.048C188.599 155.08 188.285 155.107 187.943 155.128C187.613 155.16 187.282 155.176 186.951 155.176C186.482 155.176 186.05 155.128 185.655 155.032C185.261 154.936 184.919 154.787 184.631 154.584C184.343 154.371 184.119 154.093 183.959 153.752C183.799 153.411 183.719 153 183.719 152.52C183.719 152.061 183.81 151.667 183.991 151.336C184.183 151.005 184.439 150.739 184.759 150.536C185.079 150.333 185.453 150.184 185.879 150.088C186.306 149.992 186.754 149.944 187.223 149.944C187.373 149.944 187.527 149.955 187.687 149.976C187.847 149.987 187.997 150.008 188.135 150.04C188.285 150.061 188.413 150.083 188.519 150.104C188.626 150.125 188.701 150.141 188.743 150.152V149.736C188.743 149.491 188.717 149.251 188.663 149.016C188.61 148.771 188.514 148.557 188.375 148.376C188.237 148.184 188.045 148.035 187.799 147.928C187.565 147.811 187.255 147.752 186.871 147.752C186.381 147.752 185.949 147.789 185.575 147.864C185.213 147.928 184.941 147.997 184.759 148.072L184.583 146.84C184.775 146.755 185.095 146.675 185.543 146.6C185.991 146.515 186.477 146.472 186.999 146.472Z" fill="black"/>
<path d="M197.887 154.168C197.759 154.253 197.508 154.365 197.135 154.504C196.772 154.632 196.345 154.696 195.855 154.696C195.353 154.696 194.879 154.616 194.431 154.456C193.993 154.296 193.609 154.051 193.279 153.72C192.948 153.379 192.687 152.957 192.495 152.456C192.303 151.955 192.207 151.357 192.207 150.664C192.207 150.056 192.297 149.501 192.479 149C192.66 148.488 192.921 148.051 193.263 147.688C193.615 147.315 194.041 147.027 194.543 146.824C195.044 146.611 195.609 146.504 196.239 146.504C196.932 146.504 197.535 146.557 198.047 146.664C198.569 146.76 199.007 146.851 199.359 146.936V154.36C199.359 155.64 199.028 156.568 198.367 157.144C197.705 157.72 196.703 158.008 195.359 158.008C194.836 158.008 194.34 157.965 193.871 157.88C193.412 157.795 193.012 157.693 192.671 157.576L192.943 156.28C193.241 156.397 193.604 156.499 194.031 156.584C194.468 156.68 194.921 156.728 195.391 156.728C196.276 156.728 196.911 156.552 197.295 156.2C197.689 155.848 197.887 155.288 197.887 154.52V154.168ZM197.871 147.992C197.721 147.949 197.519 147.912 197.263 147.88C197.017 147.837 196.681 147.816 196.255 147.816C195.455 147.816 194.836 148.077 194.399 148.6C193.972 149.123 193.759 149.816 193.759 150.68C193.759 151.16 193.817 151.571 193.935 151.912C194.063 152.253 194.228 152.536 194.431 152.76C194.644 152.984 194.884 153.149 195.151 153.256C195.428 153.363 195.711 153.416 195.999 153.416C196.393 153.416 196.756 153.363 197.087 153.256C197.417 153.139 197.679 153.005 197.871 152.856V147.992Z" fill="black"/>
<path d="M201.457 150.856C201.457 150.12 201.563 149.48 201.777 148.936C201.99 148.381 202.273 147.923 202.625 147.56C202.977 147.197 203.382 146.925 203.841 146.744C204.299 146.563 204.769 146.472 205.249 146.472C206.369 146.472 207.227 146.824 207.825 147.528C208.422 148.221 208.721 149.283 208.721 150.712C208.721 150.776 208.721 150.861 208.721 150.968C208.721 151.064 208.715 151.155 208.705 151.24H203.009C203.073 152.104 203.323 152.76 203.761 153.208C204.198 153.656 204.881 153.88 205.809 153.88C206.331 153.88 206.769 153.837 207.121 153.752C207.483 153.656 207.755 153.565 207.937 153.48L208.145 154.728C207.963 154.824 207.643 154.925 207.185 155.032C206.737 155.139 206.225 155.192 205.649 155.192C204.923 155.192 204.294 155.085 203.761 154.872C203.238 154.648 202.806 154.344 202.465 153.96C202.123 153.576 201.867 153.123 201.697 152.6C201.537 152.067 201.457 151.485 201.457 150.856ZM207.169 150.04C207.179 149.368 207.009 148.819 206.657 148.392C206.315 147.955 205.841 147.736 205.233 147.736C204.891 147.736 204.587 147.805 204.321 147.944C204.065 148.072 203.846 148.243 203.665 148.456C203.483 148.669 203.339 148.915 203.233 149.192C203.137 149.469 203.073 149.752 203.041 150.04H207.169Z" fill="black"/>
<path d="M165.734 90.6687C165.734 92.3896 165.056 94.04 163.85 95.2568C162.644 96.4737 161.008 97.1573 159.302 97.1573C157.597 97.1573 155.961 96.4737 154.755 95.2568C153.549 94.04 152.871 92.3896 152.871 90.6687C152.871 88.9478 153.549 87.2973 154.755 86.0805C155.961 84.8636 157.597 84.18 159.302 84.18C161.008 84.18 162.644 84.8636 163.85 86.0805C165.056 87.2973 165.734 88.9478 165.734 90.6687Z" fill="black"/>
<path d="M148.584 71.2026C146.309 71.2026 144.128 72.1141 142.52 73.7366C140.912 75.3591 140.009 77.5597 140.009 79.8542V123.112C140.009 125.407 140.912 127.607 142.52 129.23C144.128 130.852 146.309 131.764 148.584 131.764H200.034C202.308 131.764 204.489 130.852 206.097 129.23C207.705 127.607 208.609 125.407 208.609 123.112V79.8542C208.609 77.5597 207.705 75.3591 206.097 73.7366C204.489 72.1141 202.308 71.2026 200.034 71.2026H148.584ZM200.034 75.5284C201.171 75.5284 202.261 75.9842 203.065 76.7954C203.869 77.6067 204.321 78.7069 204.321 79.8542V107.972L188.127 99.5495C187.725 99.3463 187.27 99.2758 186.826 99.348C186.382 99.4202 185.972 99.6314 185.653 99.9518L169.747 116L158.342 108.335C157.93 108.059 157.436 107.934 156.944 107.983C156.452 108.032 155.991 108.251 155.641 108.603L144.296 118.786V79.8542C144.296 78.7069 144.748 77.6067 145.552 76.7954C146.356 75.9842 147.446 75.5284 148.584 75.5284H200.034Z" fill="black"/>
<path d="M165.734 90.6687C165.734 92.3896 165.056 94.04 163.85 95.2568C162.644 96.4737 161.008 97.1573 159.302 97.1573C157.597 97.1573 155.961 96.4737 154.755 95.2568C153.549 94.04 152.871 92.3896 152.871 90.6687C152.871 88.9478 153.549 87.2973 154.755 86.0805C155.961 84.8636 157.597 84.18 159.302 84.18C161.008 84.18 162.644 84.8636 163.85 86.0805C165.056 87.2973 165.734 88.9478 165.734 90.6687Z" stroke="black"/>
<path d="M148.584 71.2026C146.309 71.2026 144.128 72.1141 142.52 73.7366C140.912 75.3591 140.009 77.5597 140.009 79.8542V123.112C140.009 125.407 140.912 127.607 142.52 129.23C144.128 130.852 146.309 131.764 148.584 131.764H200.034C202.308 131.764 204.489 130.852 206.097 129.23C207.705 127.607 208.609 125.407 208.609 123.112V79.8542C208.609 77.5597 207.705 75.3591 206.097 73.7366C204.489 72.1141 202.308 71.2026 200.034 71.2026H148.584ZM200.034 75.5284C201.171 75.5284 202.261 75.9842 203.065 76.7954C203.869 77.6067 204.321 78.7069 204.321 79.8542V107.972L188.127 99.5495C187.725 99.3463 187.27 99.2758 186.826 99.348C186.382 99.4202 185.972 99.6314 185.653 99.9518L169.747 116L158.342 108.335C157.93 108.059 157.436 107.934 156.944 107.983C156.452 108.032 155.991 108.251 155.641 108.603L144.296 118.786V79.8542C144.296 78.7069 144.748 77.6067 145.552 76.7954C146.356 75.9842 147.446 75.5284 148.584 75.5284H200.034Z" stroke="black"/>
</svg>
